# xmcd CD database file
#
# Track frame offsets:
#	150
#	5453
#	17221
#	33766
#	53170
#	66721
#	79802
#	93003
#	113755
#	127327
#	150719
#	169829
#
# Disc length: 2312 seconds
#
# Revision: 0
# Processed by: cddbd v1.5.1PL2 Copyright (c) Steve Scherf et al.
# Submitted via: CDex 1.51
#
DISCID=9809060c
DTITLE=Jenny Lewis with The Watson Twins - Rabbit Fur Coat
DYEAR=1900
DGENRE=Country
TTITLE0=Run devil run
TTITLE1=The big guns
TTITLE2=Rise up with fists!!
TTITLE3=Happy
TTITLE4=The charging sky
TTITLE5=Melt your heart
TTITLE6=You are what you love
TTITLE7=Rabbit fur coat
TTITLE8=Handle with care
TTITLE9=Born secular
TTITLE10=It wasn`t me
TTITLE11=Happy (Reprise)
EXTD=
EXTT0=
EXTT1=
EXTT2=
EXTT3=
EXTT4=
EXTT5=
EXTT6=
EXTT7=
EXTT8=
EXTT9=
EXTT10=
EXTT11=
PLAYORDER=
